<?xml version="1.0" encoding="UTF-8" standalone="no"?>
<svg width="626px" height="372px" viewBox="0 0 626 372" version="1.1" xmlns="http://www.w3.org/2000/svg" xmlns:xlink="http://www.w3.org/1999/xlink" xmlns:sketch="http://www.bohemiancoding.com/sketch/ns">
    <!-- Generator: Sketch 3.4.4 (17249) - http://www.bohemiancoding.com/sketch -->
    <title>XMLID_171_</title>
    <desc>Created with Sketch.</desc>
    <defs>
        <path id="path-1" d="M610,66.5 C608.6,59.4 589.4,53.2 557.3,48.3 C550.2,47.2 547.8,41.8 553.2,39.2 C560.1,35.9 563.5,32.5 562.9,29.1 C559.3,10.5 437.7,-2.3 291.3,0.5 C144.9,3.3 29,20.7 32.6,39.3 C33.3,42.7 37.9,46 46,48.9 C52.4,51.2 52,56.7 45.4,58 C15.5,64.1 -1.2,71.1 0.1,78.1 C3,93.1 85.8,104.3 200.2,107.3 C206.8,107.5 211.1,111.9 208,115.2 C206.5,116.8 205.8,118.5 206.1,120.1 C209,135 288,145.7 382.6,143.8 C477.2,141.9 551.6,128.4 548.7,113.5 C547.9,109.2 540.9,105.3 529.1,102 C521.7,99.9 522,93.6 529.6,92.5 C581.1,85.2 611.8,76 610,66.5 L610,66.5 Z"></path>
    </defs>
    <g id="Page-1" stroke="none" stroke-width="1" fill="none" fill-rule="evenodd" sketch:type="MSPage">
        <g id="XMLID_171_" sketch:type="MSLayerGroup" transform="translate(0.000000, 2.000000)">
            <g id="XMLID_2_" transform="translate(16.000000, 225.000000)">
                <g id="XMLID_5_-link">
                    <g id="XMLID_79_-+-XMLID_148_-Mask">
                        <mask id="mask-2" sketch:name="Mask" fill="white">
                            <use xlink:href="#path-1"></use>
                        </mask>
                        <use id="Mask" fill="#FFA500" sketch:type="MSShapeGroup" xlink:href="#path-1"></use>
                        <path d="M554.4,-154.8 L554.4,-154.8 C541.6,-155 518.4,-147.6 502.7,-138.4 L234.7,19.3 L236,17.8 C236.4,17.3 236.3,16.7 235.8,16.5 C235.2,16.3 234.4,16.5 234,17 L229.1,22.9 L164.9,61 L204.9,61 L235.8,43 L235.9,42.9 L243,41.6 C243.6,41.5 244,40.9 243.9,40.3 C243.8,39.7 243.2,39.3 242.6,39.4 L241.4,39.6 L262.2,27.6 L268,26.6 C268.6,26.5 269,25.9 268.9,25.3 C268.8,24.8 268.3,24.4 267.8,24.4 L549.1,-137.5 C564.8,-146.8 567.2,-154.6 554.4,-154.8 L554.4,-154.8 Z" id="XMLID_79_" opacity="0.4" fill="#000000" sketch:type="MSShapeGroup" mask="url(#mask-2)"></path>
                        <path d="M802.4,-165.8 L802.4,-165.8 C789.6,-166 766.4,-158.6 750.7,-149.4 L482.7,8.3 L484,6.8 C484.4,6.3 484.3,5.7 483.8,5.5 C483.2,5.3 482.4,5.5 482,6 L477.1,11.9 L412.9,50 L452.9,50 L483.8,32 L483.9,31.9 L491,30.6 C491.6,30.5 492,29.9 491.9,29.3 C491.8,28.7 491.2,28.3 490.6,28.4 L489.4,28.6 L510.2,16.6 L516,15.6 C516.6,15.5 517,14.9 516.9,14.3 C516.8,13.8 516.3,13.4 515.8,13.4 L797.1,-148.5 C812.8,-157.8 815.2,-165.6 802.4,-165.8 L802.4,-165.8 Z" id="XMLID_148_" opacity="0.4" fill="#000000" sketch:type="MSShapeGroup" mask="url(#mask-2)"></path>
                    </g>
                </g>
            </g>
            <g id="XMLID_3_" transform="translate(98.000000, 23.000000)" sketch:type="MSShapeGroup">
                <path d="M95.9,111 L55.4,111 C51,111 47.4,107.4 47.4,103 L47.4,50.5 C47.4,39.7 38.7,31 27.9,31 L27.9,31 C16.6,31 7.4,40.2 7.4,51.5 L7.4,110.5 L7.4,110.5 C7.4,132.9 25.5,151 47.9,151 L47.9,151 L95.9,151 C105.6,151 113.4,143.2 113.4,133.5 L113.4,128.5 C113.4,118.8 105.5,111 95.9,111 L95.9,111 Z" id="XMLID_6_" stroke="#000000" stroke-width="3" fill="#22B558"></path>
                <path d="M122.9,262.5 L82.9,262.5 L82.9,25.5 C82.9,14.5 91.9,5.5 102.9,5.5 L102.9,5.5 C113.9,5.5 122.9,14.5 122.9,25.5 L122.9,262.5 L122.9,262.5 Z" id="XMLID_4_" stroke="#000000" stroke-width="3" fill="#22B558"></path>
                <g id="XMLID_7_" stroke="#000000" stroke-width="3" stroke-linecap="round">
                    <path d="M72,262.5 L133,262.5" id="XMLID_8_"></path>
                    <path d="M138,262.5 L143,262.5" id="XMLID_9_"></path>
                    <path d="M64,262.5 L67,262.5" id="XMLID_10_"></path>
                    <path d="M122.9,62 L128.9,56" id="XMLID_11_"></path>
                    <path d="M122.9,132 L128.9,126" id="XMLID_12_"></path>
                    <path d="M122.9,182 L128.9,176" id="XMLID_13_"></path>
                    <path d="M122.9,212 L128.9,206" id="XMLID_14_"></path>
                    <path d="M76.9,186 L82.9,192" id="XMLID_15_"></path>
                    <path d="M76.9,96 L82.9,102" id="XMLID_16_"></path>
                    <path d="M76.9,36 L82.9,42" id="XMLID_17_"></path>
                    <path d="M86.9,2 L92.9,8" id="XMLID_18_"></path>
                    <path d="M107.9,6 L113.9,0" id="XMLID_19_"></path>
                    <path d="M0.9,56 L6.9,62" id="XMLID_20_"></path>
                    <path d="M0.9,96 L6.9,102" id="XMLID_21_"></path>
                    <path d="M47.9,62 L53.9,56" id="XMLID_22_"></path>
                    <path d="M3.4,83.5 L6.4,86.5" id="XMLID_23_"></path>
                    <path d="M5.4,39.5 L8.4,42.5" id="XMLID_24_"></path>
                    <path d="M79.4,59.5 L82.4,62.5" id="XMLID_25_"></path>
                    <path d="M79.4,159.5 L82.4,162.5" id="XMLID_26_"></path>
                    <path d="M79.4,129.5 L82.4,132.5" id="XMLID_27_"></path>
                    <path d="M79.4,199.5 L82.4,202.5" id="XMLID_28_"></path>
                    <path d="M79.4,209.5 L82.4,212.5" id="XMLID_29_"></path>
                    <path d="M79.4,239.5 L82.4,242.5" id="XMLID_30_"></path>
                    <path d="M126.4,229.5 L123.4,232.5" id="XMLID_31_"></path>
                    <path d="M126.4,159.5 L123.4,162.5" id="XMLID_32_"></path>
                    <path d="M126.4,119.5 L123.4,122.5" id="XMLID_33_"></path>
                    <path d="M126.4,89.5 L123.4,92.5" id="XMLID_34_"></path>
                    <path d="M126.4,49.5 L123.4,52.5" id="XMLID_35_"></path>
                    <path d="M116.4,5.5 L113.4,8.5" id="XMLID_36_"></path>
                    <path d="M45.4,33.5 L42.4,36.5" id="XMLID_37_"></path>
                    <path d="M50.4,83.5 L47.4,86.5" id="XMLID_38_"></path>
                    <path d="M60.4,107.5 L57.4,110.5" id="XMLID_39_"></path>
                    <path d="M71.4,107.5 L68.4,110.5" id="XMLID_40_"></path>
                    <path d="M109.9,79 L115.9,73" id="XMLID_41_"></path>
                    <path d="M109.5,71 L109.5,94" id="XMLID_42_"></path>
                    <path d="M113.4,84.5 L110.4,87.5" id="XMLID_43_"></path>
                    <path d="M97.5,138 L97.5,157" id="XMLID_44_"></path>
                    <path d="M94.4,142.5 L97.4,145.5" id="XMLID_45_"></path>
                    <path d="M106.5,190 L106.5,238" id="XMLID_46_"></path>
                    <path d="M106.9,211 L112.9,205" id="XMLID_47_"></path>
                    <path d="M110.4,195.5 L107.4,198.5" id="XMLID_48_"></path>
                    <path d="M97.5,28 L97.5,51" id="XMLID_49_"></path>
                    <path d="M94.4,32.5 L97.4,35.5" id="XMLID_50_"></path>
                    <path d="M91.9,38 L97.9,44" id="XMLID_51_"></path>
                    <path d="M106.9,225 L112.9,219" id="XMLID_52_"></path>
                    <path d="M110.4,231.5 L107.4,234.5" id="XMLID_53_"></path>
                    <path d="M97.5,163 L97.5,165" id="XMLID_54_"></path>
                    <path d="M97.5,21 L97.5,23" id="XMLID_55_"></path>
                    <path d="M109.5,100 L109.5,104" id="XMLID_56_"></path>
                    <path d="M106.5,244 L106.5,248" id="XMLID_57_"></path>
                    <path d="M89.5,96 L89.5,119" id="XMLID_58_"></path>
                    <path d="M89.5,217 L89.5,221" id="XMLID_59_"></path>
                    <path d="M35.9,79 L41.9,73" id="XMLID_60_"></path>
                    <path d="M35.5,71 L35.5,94" id="XMLID_61_"></path>
                    <path d="M39.4,84.5 L36.4,87.5" id="XMLID_62_"></path>
                    <path d="M35.5,62 L35.5,65" id="XMLID_63_"></path>
                    <path d="M17.5,91 L17.5,107" id="XMLID_65_"></path>
                    <path d="M14.4,92.5 L17.4,95.5" id="XMLID_64_"></path>
                    <path d="M11.9,98 L17.9,104" id="XMLID_66_"></path>
                    <path d="M17.5,112 L17.5,113" id="XMLID_67_"></path>
                    <path d="M68,131.5 L49,131.5" id="XMLID_68_"></path>
                    <path d="M64.2,127.8 L61.2,130.8" id="XMLID_69_"></path>
                    <path d="M54.4,127.5 L51.4,130.5" id="XMLID_70_"></path>
                    <path d="M17.5,52 L17.5,58" id="XMLID_71_"></path>
                </g>
                <path d="M102.4,5.5 C101.4,5.5 100.2,5.6 99.2,5.8 C108.8,7.3 116,15.6 116,25.5 L116,263 L122,263 L122,25.5 C122,14.5 113.4,5.5 102.4,5.5 L102.4,5.5 Z" id="XMLID_74_" opacity="0.4" fill="#000000"></path>
                <rect id="XMLID_72_" opacity="0.4" fill="#000000" x="76.6" y="112.2" width="5" height="38"></rect>
                <g id="XMLID_75_" transform="translate(24.000000, 31.000000)" fill-opacity="0.4" fill="#000000">
                    <path d="M16,19.5 L16,72 C16,76.4 20.9,81 25.4,81 L31.4,81 C27,81 22,76.4 22,72 L22,19.5 C22,8.7 14.4,0 3.6,0 L3.7,0 C2.7,0 1,0.1 0.1,0.3 C9.4,1.7 16,9.7 16,19.5 L16,19.5 Z" id="XMLID_76_"></path>
                </g>
            </g>
            <g id="XMLID_73_" transform="translate(346.000000, 0.000000)" sketch:type="MSShapeGroup">
                <path d="M95.9,123 L55.4,123 C51,123 47.4,119.4 47.4,115 L47.4,56.5 C47.4,45.7 38.7,37 27.9,37 L27.9,37 C16.6,37 7.4,46.2 7.4,57.5 L7.4,122.5 L7.4,122.5 C7.4,144.9 25.5,163 47.9,163 L47.9,163 L95.9,163 C105.6,163 113.4,155.2 113.4,145.5 L113.4,140.5 C113.4,130.8 105.5,123 95.9,123 L95.9,123 Z" id="XMLID_143_" stroke="#000000" stroke-width="3" fill="#22B558"></path>
                <path d="M122.9,274.5 L82.9,274.5 L82.9,25.5 C82.9,14.5 91.9,5.5 102.9,5.5 L102.9,5.5 C113.9,5.5 122.9,14.5 122.9,25.5 L122.9,274.5 L122.9,274.5 Z" id="XMLID_142_" stroke="#000000" stroke-width="3" fill="#22B558"></path>
                <g id="XMLID_77_" stroke="#000000" stroke-width="3" stroke-linecap="round">
                    <path d="M72,274.5 L133,274.5" id="XMLID_141_"></path>
                    <path d="M138,274.5 L143,274.5" id="XMLID_140_"></path>
                    <path d="M64,274.5 L67,274.5" id="XMLID_139_"></path>
                    <path d="M122.9,74 L128.9,68" id="XMLID_138_"></path>
                    <path d="M122.9,144 L128.9,138" id="XMLID_137_"></path>
                    <path d="M122.9,194 L128.9,188" id="XMLID_136_"></path>
                    <path d="M122.9,224 L128.9,218" id="XMLID_135_"></path>
                    <path d="M76.9,198 L82.9,204" id="XMLID_134_"></path>
                    <path d="M76.9,108 L82.9,114" id="XMLID_133_"></path>
                    <path d="M76.9,48 L82.9,54" id="XMLID_132_"></path>
                    <path d="M86.9,2 L92.9,8" id="XMLID_131_"></path>
                    <path d="M107.9,6 L113.9,0" id="XMLID_130_"></path>
                    <path d="M0.9,62 L6.9,68" id="XMLID_129_"></path>
                    <path d="M0.9,108 L6.9,114" id="XMLID_128_"></path>
                    <path d="M47.9,68 L53.9,62" id="XMLID_127_"></path>
                    <path d="M3.4,95.5 L6.4,98.5" id="XMLID_126_"></path>
                    <path d="M5.4,45.5 L8.4,48.5" id="XMLID_125_"></path>
                    <path d="M79.4,71.5 L82.4,74.5" id="XMLID_124_"></path>
                    <path d="M79.4,171.5 L82.4,174.5" id="XMLID_123_"></path>
                    <path d="M79.4,141.5 L82.4,144.5" id="XMLID_122_"></path>
                    <path d="M79.4,211.5 L82.4,214.5" id="XMLID_121_"></path>
                    <path d="M79.4,221.5 L82.4,224.5" id="XMLID_120_"></path>
                    <path d="M79.4,251.5 L82.4,254.5" id="XMLID_119_"></path>
                    <path d="M126.4,241.5 L123.4,244.5" id="XMLID_118_"></path>
                    <path d="M126.4,171.5 L123.4,174.5" id="XMLID_117_"></path>
                    <path d="M126.4,131.5 L123.4,134.5" id="XMLID_116_"></path>
                    <path d="M126.4,101.5 L123.4,104.5" id="XMLID_115_"></path>
                    <path d="M126.4,61.5 L123.4,64.5" id="XMLID_114_"></path>
                    <path d="M116.4,5.5 L113.4,8.5" id="XMLID_113_"></path>
                    <path d="M45.4,39.5 L42.4,42.5" id="XMLID_112_"></path>
                    <path d="M50.4,95.5 L47.4,98.5" id="XMLID_111_"></path>
                    <path d="M60.4,119.5 L57.4,122.5" id="XMLID_110_"></path>
                    <path d="M71.4,119.5 L68.4,122.5" id="XMLID_109_"></path>
                    <path d="M96.9,69 L90.9,63" id="XMLID_108_"></path>
                    <path d="M96.5,61 L96.5,84" id="XMLID_107_"></path>
                    <path d="M93.4,74.5 L96.4,77.5" id="XMLID_106_"></path>
                    <path d="M97.5,122 L97.5,157" id="XMLID_105_"></path>
                    <path d="M94.4,144.5 L97.4,147.5" id="XMLID_104_"></path>
                    <path d="M106.5,191 L106.5,249" id="XMLID_103_"></path>
                    <path d="M106.9,223 L112.9,217" id="XMLID_102_"></path>
                    <path d="M110.4,207.5 L107.4,210.5" id="XMLID_101_"></path>
                    <path d="M108.5,30 L108.5,53" id="XMLID_100_"></path>
                    <path d="M112.4,34.5 L109.4,37.5" id="XMLID_99_"></path>
                    <path d="M114.9,40 L108.9,46" id="XMLID_98_"></path>
                    <path d="M106.9,237 L112.9,231" id="XMLID_97_"></path>
                    <path d="M110.4,243.5 L107.4,246.5" id="XMLID_96_"></path>
                    <path d="M97.5,165 L97.5,167" id="XMLID_95_"></path>
                    <path d="M108.5,22 L108.5,24" id="XMLID_94_"></path>
                    <path d="M96.5,90 L96.5,94" id="XMLID_93_"></path>
                    <path d="M106.5,256 L106.5,260" id="XMLID_92_"></path>
                    <path d="M112.5,100 L112.5,123" id="XMLID_91_"></path>
                    <path d="M92.5,208 L92.5,212" id="XMLID_90_"></path>
                    <path d="M35.9,101 L41.9,95" id="XMLID_89_"></path>
                    <path d="M35.5,93 L35.5,116" id="XMLID_88_"></path>
                    <path d="M39.4,106.5 L36.4,109.5" id="XMLID_87_"></path>
                    <path d="M35.5,84 L35.5,87" id="XMLID_86_"></path>
                    <path d="M21.5,70 L21.5,86" id="XMLID_85_"></path>
                    <path d="M18.4,71.5 L21.4,74.5" id="XMLID_84_"></path>
                    <path d="M15.9,77 L21.9,83" id="XMLID_83_"></path>
                    <path d="M21.5,91 L21.5,92" id="XMLID_82_"></path>
                    <path d="M72,134.5 L53,134.5" id="XMLID_81_"></path>
                    <path d="M70.2,130.8 L67.2,133.8" id="XMLID_80_"></path>
                    <path d="M60.4,130.5 L57.4,133.5" id="XMLID_78_"></path>
                    <path d="M21.5,58 L21.5,64" id="XMLID_144_"></path>
                </g>
                <g id="XMLID_166_" transform="translate(36.000000, 131.000000)" stroke="#000000" stroke-width="3">
                    <path d="M57.4,0.5 L60.4,3.5" id="XMLID_158_"></path>
                    <path d="M74.4,70.5 L71.4,73.5" id="XMLID_160_"></path>
                    <path d="M19,16.5 L0,16.5" id="XMLID_163_"></path>
                    <path d="M17.2,20.2 L14.2,17.2" id="XMLID_162_"></path>
                    <path d="M7.4,20.5 L4.4,17.5" id="XMLID_161_"></path>
                    <path d="M27,16.5 L24,16.5" id="XMLID_164_"></path>
                    <path d="M10,3.5 L8,3.5" id="XMLID_165_"></path>
                </g>
                <path d="M102.4,5.5 C101.4,5.5 100.2,5.6 99.2,5.8 C108.8,7.3 116,15.6 116,25.5 L116,275 L122,275 L122,25.5 C122,14.5 113.4,5.5 102.4,5.5 L102.4,5.5 Z" id="XMLID_147_" opacity="0.4" fill="#000000"></path>
                <rect id="XMLID_146_" opacity="0.4" fill="#000000" x="76.6" y="124.2" width="5" height="38"></rect>
                <g id="XMLID_145_" transform="translate(24.000000, 37.000000)" fill-opacity="0.4" fill="#000000">
                    <path d="M16,19.5 L16,78 C16,82.4 20.9,87 25.4,87 L31.4,87 C27,87 22,82.4 22,78 L22,19.5 C22,8.7 14.4,0 3.6,0 L3.7,0 C2.7,0 1,0.1 0.1,0.3 C9.4,1.7 16,9.7 16,19.5 L16,19.5 Z" id="XMLID_149_"></path>
                </g>
            </g>
            <ellipse id="XMLID_150_" fill="#FFA500" sketch:type="MSShapeGroup" cx="165.8" cy="346.5" rx="34.9" ry="8.5"></ellipse>
            <ellipse id="XMLID_151_" fill="#FFA500" sketch:type="MSShapeGroup" cx="27" cy="277.5" rx="26.7" ry="6.5"></ellipse>
            <ellipse id="XMLID_152_" fill="#FFA500" sketch:type="MSShapeGroup" cx="593.3" cy="267.8" rx="14.9" ry="3.6"></ellipse>
            <g id="XMLID_153_" transform="translate(362.000000, 332.000000)" sketch:type="MSShapeGroup">
                <g id="XMLID_157_" transform="translate(28.000000, 0.000000)">
                    <path d="M1,22 C17,10 32,6.4 44.2,6.4 C56.4,6.4 61.3,9.9 45.3,22" id="XMLID_156_" opacity="0.4" fill="#000000"></path>
                    <path d="M0.4,21.9 C0.4,9.8 10.2,0 22.3,0 C34.4,0 44.2,9.8 44.2,21.9" id="XMLID_155_" stroke="#000000" stroke-width="3" fill="#E5D92B"></path>
                    <path d="M22.9,1.6 C21.9,1.6 20.8,1.7 19.8,1.8 C29.6,3.3 37.1,12.2 37.1,21.9 L43.3,21.9 C43.2,11.3 34.1,1.6 22.9,1.6 L22.9,1.6 Z" id="XMLID_159_" fill="#B2A921"></path>
                </g>
                <path d="M11.5,22 C11.5,13.8 18.2,7.1 26.4,7.1 C34.6,7.1 41.3,13.8 41.3,22" id="XMLID_168_" stroke="#000000" stroke-width="3" fill="#E5D92B"></path>
                <path d="M27.1,8.6 C26.4,8.6 25.7,8.6 25.1,8.7 C31.5,9.7 36.5,15.3 36.5,21.9 L40.6,21.9 C40.5,14.5 34.5,8.6 27.1,8.6 L27.1,8.6 Z" id="XMLID_167_" fill="#B2A921"></path>
                <path d="M6,22.5 L75,22.5" id="XMLID_154_" stroke="#000000" stroke-width="3"></path>
                <path d="M77,22.5 L81,22.5" id="XMLID_169_" stroke="#000000" stroke-width="3"></path>
                <path d="M0,22.5 L4,22.5" id="XMLID_170_" stroke="#000000" stroke-width="3"></path>
            </g>
        </g>
    </g>
</svg>