<?xml version="1.0" encoding="UTF-8" standalone="no"?>
<svg width="114px" height="107px" viewBox="0 0 114 107" version="1.1" xmlns="http://www.w3.org/2000/svg" xmlns:xlink="http://www.w3.org/1999/xlink" xmlns:sketch="http://www.bohemiancoding.com/sketch/ns">
    <!-- Generator: Sketch 3.4.4 (17249) - http://www.bohemiancoding.com/sketch -->
    <title>Group</title>
    <desc>Created with Sketch.</desc>
    <defs></defs>
    <g id="Page-1" stroke="none" stroke-width="1" fill="none" fill-rule="evenodd" sketch:type="MSPage">
        <g id="Group" sketch:type="MSLayerGroup" transform="translate(0.000000, -15.000000)" stroke="#000000">
            <circle id="XMLID_311_" stroke-width="3" sketch:type="MSShapeGroup" cx="57.1" cy="71.3" r="47.5"></circle>
            <circle id="XMLID_310_" stroke-width="3" sketch:type="MSShapeGroup" cx="47.1" cy="65.3" r="43"></circle>
            <ellipse id="XMLID_309_" stroke-width="2.99996235" sketch:type="MSShapeGroup" transform="translate(59.192370, 72.306810) rotate(16.481370) translate(-59.192370, -72.306810) " cx="59.19237" cy="72.30681" rx="36.0995469" ry="42.9994603"></ellipse>
            <ellipse id="XMLID_308_" stroke-width="3.00012699" sketch:type="MSShapeGroup" transform="translate(59.321370, 82.811530) rotate(-40.758518) translate(-59.321370, -82.811530) " cx="59.32137" cy="82.81153" rx="29.3012402" ry="35.0014815"></ellipse>
            <ellipse id="XMLID_307_" stroke-width="3.00012699" sketch:type="MSShapeGroup" transform="translate(64.201150, 64.478270) rotate(-40.758518) translate(-64.201150, -64.478270) " cx="64.20115" cy="64.47827" rx="41.9017736" ry="48.502053"></ellipse>
            <ellipse id="XMLID_306_" stroke-width="2.99991679" sketch:type="MSShapeGroup" transform="translate(57.886450, 71.399760) rotate(22.967618) translate(-57.886450, -71.399760) " cx="57.88645" cy="71.39976" rx="30.2991596" ry="36.0989988"></ellipse>
            <ellipse id="XMLID_305_" stroke-width="2.99994349" sketch:type="MSShapeGroup" transform="translate(57.866890, 56.376100) rotate(-37.503614) translate(-57.866890, -56.376100) " cx="57.86689" cy="56.3761" rx="30.2994293" ry="36.0993201"></ellipse>
            <ellipse id="XMLID_304_" stroke-width="2.99994349" sketch:type="MSShapeGroup" transform="translate(65.003660, 72.653610) rotate(-37.503614) translate(-65.003660, -72.653610) " cx="65.00366" cy="72.65361" rx="30.2994293" ry="24.3995404"></ellipse>
            <ellipse id="XMLID_303_" stroke-width="2.99983968" sketch:type="MSShapeGroup" transform="translate(72.671540, 55.587220) rotate(21.494972) translate(-72.671540, -55.587220) " cx="72.67154" cy="55.58722" rx="22.5987922" ry="33.4982097"></ellipse>
            <ellipse id="XMLID_302_" stroke-width="2.99989335" sketch:type="MSShapeGroup" transform="translate(66.465800, 88.517500) rotate(-20.555375) translate(-66.465800, -88.517500) " cx="66.4658" cy="88.5175" rx="22.5991966" ry="30.2989228"></ellipse>
            <ellipse id="XMLID_301_" stroke-width="3.00007398" sketch:type="MSShapeGroup" transform="translate(72.706960, 55.533480) rotate(-48.884142) translate(-72.706960, -55.533480) " cx="72.70696" cy="55.53348" rx="22.6005573" ry="33.5008261"></ellipse>
            <ellipse id="XMLID_300_" stroke-width="3.0000816" sketch:type="MSShapeGroup" transform="translate(67.692100, 53.998600) rotate(244.049907) translate(-67.692100, -53.998600) " cx="67.6921" cy="53.9986" rx="15.8004298" ry="23.5006392"></ellipse>
            <path d="M66.7,19.6 L68.2,17" id="XMLID_299_" stroke-width="3" stroke-linecap="round" sketch:type="MSShapeGroup"></path>
            <path d="M27,27.3 L25.1,25.1" id="XMLID_298_" stroke-width="3" stroke-linecap="round" sketch:type="MSShapeGroup"></path>
            <path d="M61.5,39.5 L63.7,41.1" id="XMLID_297_" stroke-width="3" stroke-linecap="round" sketch:type="MSShapeGroup"></path>
            <path d="M70.9,45.6 L71.7,43.1" id="XMLID_296_" stroke-width="3" stroke-linecap="round" sketch:type="MSShapeGroup"></path>
            <path d="M102,45.2 L104.1,43.8" id="XMLID_295_" stroke-width="3" stroke-linecap="round" sketch:type="MSShapeGroup"></path>
            <path d="M84.4,23 L84.9,21.5" id="XMLID_294_" stroke-width="3" stroke-linecap="round" sketch:type="MSShapeGroup"></path>
            <path d="M42.5,35.9 L41.4,32" id="XMLID_293_" stroke-width="3" stroke-linecap="round" sketch:type="MSShapeGroup"></path>
            <path d="M39.1,38.1 L36.4,37.1" id="XMLID_292_" stroke-width="3" stroke-linecap="round" sketch:type="MSShapeGroup"></path>
            <path d="M15.2,48.1 L13.6,47" id="XMLID_291_" stroke-width="3" stroke-linecap="round" sketch:type="MSShapeGroup"></path>
            <path d="M19.3,56.2 L15.5,58" id="XMLID_290_" stroke-width="3" stroke-linecap="round" sketch:type="MSShapeGroup"></path>
            <path d="M22,78 L17.7,77.2" id="XMLID_289_" stroke-width="3" stroke-linecap="round" sketch:type="MSShapeGroup"></path>
            <path d="M9.8,66.6 L14.1,67.6" id="XMLID_288_" stroke-width="3" stroke-linecap="round" sketch:type="MSShapeGroup"></path>
            <path d="M37.1,55.8 L37.7,59.8" id="XMLID_287_" stroke-width="3" stroke-linecap="round" sketch:type="MSShapeGroup"></path>
            <path d="M74.9,46.2 L76.6,50" id="XMLID_286_" stroke-width="3" stroke-linecap="round" sketch:type="MSShapeGroup"></path>
            <path d="M68.4,53.5 L72.4,51.6" id="XMLID_285_" stroke-width="3" stroke-linecap="round" sketch:type="MSShapeGroup"></path>
            <path d="M60.3,50.8 L60.7,53.8" id="XMLID_284_" stroke-width="3" stroke-linecap="round" sketch:type="MSShapeGroup"></path>
            <path d="M82.1,81.5 L81,77.2" id="XMLID_283_" stroke-width="3" stroke-linecap="round" sketch:type="MSShapeGroup"></path>
            <path d="M70.9,79.9 L73.4,78" id="XMLID_282_" stroke-width="3" stroke-linecap="round" sketch:type="MSShapeGroup"></path>
            <path d="M71.6,69.6 L74.4,71.3" id="XMLID_281_" stroke-width="3" stroke-linecap="round" sketch:type="MSShapeGroup"></path>
            <path d="M97.6,79.4 L98.6,82.8" id="XMLID_280_" stroke-width="3" stroke-linecap="round" sketch:type="MSShapeGroup"></path>
            <path d="M100.2,90.2 L96.7,88.8" id="XMLID_279_" stroke-width="3" stroke-linecap="round" sketch:type="MSShapeGroup"></path>
            <path d="M85.9,97 L84.4,93.9" id="XMLID_278_" stroke-width="3" stroke-linecap="round" sketch:type="MSShapeGroup"></path>
            <path d="M72.7,99.9 L75.8,102" id="XMLID_277_" stroke-width="3" stroke-linecap="round" sketch:type="MSShapeGroup"></path>
            <path d="M59.7,105.4 L59.6,102.6" id="XMLID_276_" stroke-width="3" stroke-linecap="round" sketch:type="MSShapeGroup"></path>
            <path d="M51.2,97.6 L52.4,95" id="XMLID_275_" stroke-width="3" stroke-linecap="round" sketch:type="MSShapeGroup"></path>
            <path d="M63.7,90.6 L64.7,93.4" id="XMLID_274_" stroke-width="3" stroke-linecap="round" sketch:type="MSShapeGroup"></path>
            <path d="M33.2,92.8 L35.1,90.5" id="XMLID_273_" stroke-width="3" stroke-linecap="round" sketch:type="MSShapeGroup"></path>
            <path d="M36.9,83.4 L33.9,83" id="XMLID_272_" stroke-width="3" stroke-linecap="round" sketch:type="MSShapeGroup"></path>
            <path d="M11.5,84 L14.1,82.6" id="XMLID_271_" stroke-width="3" stroke-linecap="round" sketch:type="MSShapeGroup"></path>
            <path d="M4,76.5 L2,76.5" id="XMLID_270_" stroke-width="3" stroke-linecap="round" sketch:type="MSShapeGroup"></path>
            <path d="M3.4,61.6 L1.5,59.1" id="XMLID_269_" stroke-width="3" stroke-linecap="round" sketch:type="MSShapeGroup"></path>
            <path d="M10,60 L8.5,58.6" id="XMLID_268_" stroke-width="3" stroke-linecap="round" sketch:type="MSShapeGroup"></path>
            <path d="M16.8,95.9 L18.7,94.2" id="XMLID_267_" stroke-width="3" stroke-linecap="round" sketch:type="MSShapeGroup"></path>
            <path d="M19.3,98.5 L18,103.5" id="XMLID_266_" stroke-width="3" stroke-linecap="round" sketch:type="MSShapeGroup"></path>
            <path d="M28.8,104.3 L29.4,107.4" id="XMLID_265_" stroke-width="3" stroke-linecap="round" sketch:type="MSShapeGroup"></path>
            <path d="M35,100.5 L31,100.5" id="XMLID_264_" stroke-width="3" stroke-linecap="round" sketch:type="MSShapeGroup"></path>
            <path d="M38.3,69.3 L40.7,70" id="XMLID_263_" stroke-width="3" stroke-linecap="round" sketch:type="MSShapeGroup"></path>
            <path d="M61.7,59.1 L63.7,62.1" id="XMLID_262_" stroke-width="3" stroke-linecap="round" sketch:type="MSShapeGroup"></path>
            <path d="M57.4,60.6 L56.7,62.8" id="XMLID_261_" stroke-width="3" stroke-linecap="round" sketch:type="MSShapeGroup"></path>
            <path d="M52.2,37.8 L52.4,35.5" id="XMLID_260_" stroke-width="3" stroke-linecap="round" sketch:type="MSShapeGroup"></path>
            <path d="M34.4,42.9 L32.2,42" id="XMLID_259_" stroke-width="3" stroke-linecap="round" sketch:type="MSShapeGroup"></path>
            <path d="M44.6,26.2 L46.7,28.5" id="XMLID_258_" stroke-width="3" stroke-linecap="round" sketch:type="MSShapeGroup"></path>
            <path d="M23.4,36.7 L22.5,34.1" id="XMLID_257_" stroke-width="3" stroke-linecap="round" sketch:type="MSShapeGroup"></path>
            <path d="M43.4,21.1 L43.2,18.9" id="XMLID_256_" stroke-width="3" stroke-linecap="round" sketch:type="MSShapeGroup"></path>
            <path d="M106.6,54.8 L109,54.5" id="XMLID_255_" stroke-width="3" stroke-linecap="round" sketch:type="MSShapeGroup"></path>
            <path d="M104.4,78.4 L107.4,78.9" id="XMLID_254_" stroke-width="3" stroke-linecap="round" sketch:type="MSShapeGroup"></path>
            <path d="M96.2,96.6 L93.2,95" id="XMLID_253_" stroke-width="3" stroke-linecap="round" sketch:type="MSShapeGroup"></path>
            <path d="M94.4,103.2 L95.9,105.8" id="XMLID_252_" stroke-width="3" stroke-linecap="round" sketch:type="MSShapeGroup"></path>
            <path d="M85.9,110.8 L88.4,111.6" id="XMLID_251_" stroke-width="3" stroke-linecap="round" sketch:type="MSShapeGroup"></path>
            <path d="M66.7,118.4 L66.9,120.4" id="XMLID_250_" stroke-width="3" stroke-linecap="round" sketch:type="MSShapeGroup"></path>
            <path d="M35.2,113.5 L31.4,114.5" id="XMLID_249_" stroke-width="3" stroke-linecap="round" sketch:type="MSShapeGroup"></path>
            <path d="M23.6,88.8 L19.9,89.2" id="XMLID_248_" stroke-width="3" stroke-linecap="round" sketch:type="MSShapeGroup"></path>
            <path d="M50.2,87.1 L49.7,84.5" id="XMLID_247_" stroke-width="3" stroke-linecap="round" sketch:type="MSShapeGroup"></path>
            <path d="M55.4,82.1 L57.6,81.1" id="XMLID_246_" stroke-width="3" stroke-linecap="round" sketch:type="MSShapeGroup"></path>
            <path d="M64.5,78 L64.5,81" id="XMLID_245_" stroke-width="3" stroke-linecap="round" sketch:type="MSShapeGroup"></path>
            <path d="M63.2,71.1 L63.7,69.3" id="XMLID_244_" stroke-width="3" stroke-linecap="round" sketch:type="MSShapeGroup"></path>
            <path d="M77.4,58 L79.7,57" id="XMLID_243_" stroke-width="3" stroke-linecap="round" sketch:type="MSShapeGroup"></path>
            <path d="M109,68.5 L112.4,69.5" id="XMLID_242_" stroke-width="3" stroke-linecap="round" sketch:type="MSShapeGroup"></path>
            <path d="M106.9,85.8 L108.9,86.5" id="XMLID_241_" stroke-width="3" stroke-linecap="round" sketch:type="MSShapeGroup"></path>
            <path d="M11.2,41.5 L10,39" id="XMLID_240_" stroke-width="3" stroke-linecap="round" sketch:type="MSShapeGroup"></path>
        </g>
    </g>
</svg>